<svg width="1448" height="1032" viewBox="0 0 1448 1032" fill="none" xmlns="http://www.w3.org/2000/svg">
<g clip-path="url(#clip0_5_5)" filter="url(#filter0_dd_5_5)">
<rect width="1440" height="1024" transform="translate(4)" fill="white"/>
<rect x="3.09058" y="-13.5385" width="1450.93" height="1043.54" fill="#FFDDD2"/>
<ellipse cx="28.0179" cy="184.577" rx="159.018" ry="198.115" fill="#E29578" fill-opacity="0.6"/>
<ellipse cx="1445.43" cy="472.923" rx="204.574" ry="253.038" fill="#EF233C" fill-opacity="0.7"/>
<path fill-rule="evenodd" clip-rule="evenodd" d="M1464.34 178.692L1431.11 142.824C1396.14 104.714 1327.95 32.978 1259.76 17.2857C1191.57 1.59341 1123.38 41.9451 1055.19 89.022C986.996 136.099 918.805 189.901 850.613 174.209C782.422 158.516 714.23 73.3297 681.009 32.978L646.039 -9.61538V-41H681.009C714.23 -41 782.422 -41 850.613 -41C918.805 -41 986.996 -41 1055.19 -41C1123.38 -41 1191.57 -41 1259.76 -41C1327.95 -41 1396.14 -41 1431.11 -41H1464.34V178.692Z" fill="#D62828" fill-opacity="0.38"/>
<path fill-rule="evenodd" clip-rule="evenodd" d="M-38.168 559.231L24.0066 594.103C86.1811 628.974 210.53 698.718 334.879 751.026C459.228 803.333 583.578 838.205 707.927 864.359C832.276 890.513 956.625 907.949 1080.97 890.513C1205.32 873.077 1329.67 820.769 1391.85 794.615L1454.02 768.462V1030H1391.85C1329.67 1030 1205.32 1030 1080.97 1030C956.625 1030 832.276 1030 707.927 1030C583.578 1030 459.228 1030 334.879 1030C210.53 1030 86.1811 1030 24.0066 1030H-38.168V559.231Z" fill="#EF233C" fill-opacity="0.6"/>
</g>
<defs>
<filter id="filter0_dd_5_5" x="0" y="0" width="1448" height="1032" filterUnits="userSpaceOnUse" color-interpolation-filters="sRGB">
<feFlood flood-opacity="0" result="BackgroundImageFix"/>
<feColorMatrix in="SourceAlpha" type="matrix" values="0 0 0 0 0 0 0 0 0 0 0 0 0 0 0 0 0 0 127 0" result="hardAlpha"/>
<feOffset dy="4"/>
<feGaussianBlur stdDeviation="2"/>
<feComposite in2="hardAlpha" operator="out"/>
<feColorMatrix type="matrix" values="0 0 0 0 0 0 0 0 0 0 0 0 0 0 0 0 0 0 0.25 0"/>
<feBlend mode="normal" in2="BackgroundImageFix" result="effect1_dropShadow_5_5"/>
<feColorMatrix in="SourceAlpha" type="matrix" values="0 0 0 0 0 0 0 0 0 0 0 0 0 0 0 0 0 0 127 0" result="hardAlpha"/>
<feOffset dy="4"/>
<feGaussianBlur stdDeviation="2"/>
<feComposite in2="hardAlpha" operator="out"/>
<feColorMatrix type="matrix" values="0 0 0 0 0 0 0 0 0 0 0 0 0 0 0 0 0 0 0.25 0"/>
<feBlend mode="normal" in2="effect1_dropShadow_5_5" result="effect2_dropShadow_5_5"/>
<feBlend mode="normal" in="SourceGraphic" in2="effect2_dropShadow_5_5" result="shape"/>
</filter>
<clipPath id="clip0_5_5">
<rect width="1440" height="1024" fill="white" transform="translate(4)"/>
</clipPath>
</defs>
</svg>
