<svg width="1320" height="324" viewBox="0 0 1320 324" fill="none" xmlns="http://www.w3.org/2000/svg">
<rect width="1320" height="324" fill="#F5F5F5"/>
<g clip-path="url(#clip0_0_1)">
<rect width="1320" height="324" fill="white"/>
<path fill-rule="evenodd" clip-rule="evenodd" d="M0 23L55.5258 60.4223C109.79 99.0518 219.579 173.896 330.631 167.861C440.421 161.825 550.21 73.7012 660 66.4582C769.79 60.4223 879.579 136.474 990.631 173.896C1100.42 212.526 1210.21 212.526 1264.47 212.526H1320V326H1264.47C1210.21 326 1100.42 326 990.631 326C879.579 326 769.79 326 660 326C550.21 326 440.421 326 330.631 326C219.579 326 109.79 326 55.5258 326H0V23Z" fill="#E29578" fill-opacity="0.6"/>
<path fill-rule="evenodd" clip-rule="evenodd" d="M0 255.375L55 236.313C110 217.25 220 179.125 330 160.063C440 141 550 141 660 163.875C770 186.75 880 232.5 990 232.5C1100 232.5 1210 186.75 1265 163.875L1320 141V324H1265C1210 324 1100 324 990 324C880 324 770 324 660 324C550 324 440 324 330 324C220 324 110 324 55 324H0V255.375Z" fill="#E29578"/>
<path fill-rule="evenodd" clip-rule="evenodd" d="M0 224.355L13.8815 197.582C27.7629 171.645 55.5258 118.936 82.0268 101.367C109.79 83.7968 137.553 101.367 165.315 114.753C193.078 128.139 219.579 136.506 247.342 132.323C275.105 128.139 302.868 110.57 330.631 101.367C357.132 93 384.895 93 412.658 114.753C440.421 136.506 466.922 180.012 494.684 193.398C522.447 206.785 550.21 189.215 577.973 180.012C604.474 171.645 632.237 171.645 660 171.645C687.763 171.645 715.526 171.645 742.027 180.012C769.79 189.215 797.553 206.785 825.315 202.602C853.078 197.582 879.579 171.645 907.342 167.462C935.105 163.279 962.868 180.012 990.631 189.215C1017.13 197.582 1044.89 197.582 1072.66 206.785C1100.42 215.151 1126.92 232.721 1154.68 246.108C1182.45 259.494 1210.21 267.861 1237.97 241.924C1264.47 215.151 1292.24 154.076 1306.12 123.12L1320 93V303H1306.12C1292.24 303 1264.47 303 1237.97 303C1210.21 303 1182.45 303 1154.68 303C1126.92 303 1100.42 303 1072.66 303C1044.89 303 1017.13 303 990.631 303C962.868 303 935.105 303 907.342 303C879.579 303 853.078 303 825.315 303C797.553 303 769.79 303 742.027 303C715.526 303 687.763 303 660 303C632.237 303 604.474 303 577.973 303C550.21 303 522.447 303 494.684 303C466.922 303 440.421 303 412.658 303C384.895 303 357.132 303 330.631 303C302.868 303 275.105 303 247.342 303C219.579 303 193.078 303 165.315 303C137.553 303 109.79 303 82.0268 303C55.5258 303 27.7629 303 13.8815 303H0V224.355Z" fill="#E29578" fill-opacity="0.4"/>
<path fill-rule="evenodd" clip-rule="evenodd" d="M0 0L31.9 36C62.7 72 125.4 144 188.1 144C251.9 144 314.6 72 377.3 54C440 36 502.7 72 565.4 120C628.1 168 691.9 228 754.6 264C817.3 300 880 312 942.7 276C1005.4 240 1068.1 156 1131.9 108C1194.6 60 1257.3 48 1288.1 42L1320 36V324H1288.1C1257.3 324 1194.6 324 1131.9 324C1068.1 324 1005.4 324 942.7 324C880 324 817.3 324 754.6 324C691.9 324 628.1 324 565.4 324C502.7 324 440 324 377.3 324C314.6 324 251.9 324 188.1 324C125.4 324 62.7 324 31.9 324H0V0Z" fill="#E29578" fill-opacity="0.5"/>
</g>
<defs>
<clipPath id="clip0_0_1">
<rect width="1320" height="324" fill="white"/>
</clipPath>
</defs>
</svg>
