<svg width="1440" height="320" viewBox="0 0 1440 320" fill="none" xmlns="http://www.w3.org/2000/svg">
<g clip-path="url(#clip0_3_20)">
<path d="M0 0L40 26.7C80 53 160 107 240 117.3C320 128 400 96 480 101.3C560 107 640 149 720 176C800 203 880 213 960 197.3C1040 181 1120 139 1200 122.7C1280 107 1360 117 1400 122.7L1440 128V320H1400C1360 320 1280 320 1200 320C1120 320 1040 320 960 320C880 320 800 320 720 320C640 320 560 320 480 320C400 320 320 320 240 320C160 320 80 320 40 320H0V0Z" fill="#0099FF"/>
<g clip-path="url(#clip1_3_20)">
<path d="M0 32L48 69.3C96 107 192 181 288 197.3C384 213 480 171 576 144C672 117 768 107 864 128C960 149 1056 203 1152 229.3C1248 256 1344 256 1392 256H1440V320H1392C1344 320 1248 320 1152 320C1056 320 960 320 864 320C768 320 672 320 576 320C480 320 384 320 288 320C192 320 96 320 48 320H0V32Z" fill="#204AC8" fill-opacity="0.8"/>
<g clip-path="url(#clip2_3_20)">
<path d="M0 251.6L30.6875 245.936C61.375 239.844 122.75 229.156 184.125 205.964C245.5 183.2 306.875 149 368.25 120.464C429.625 92.3562 491 68.8437 552.375 92.0356C613.75 114.8 675.125 183.2 736.5 223.064C797.875 263.356 859.25 274.044 920.625 240.164C982 205.644 1043.38 126.556 1104.75 86.2644C1166.13 46.4 1227.5 46.4 1288.88 86.2644C1350.25 126.556 1411.63 205.644 1442.31 245.936L1473 285.8V320H1442.31C1411.63 320 1350.25 320 1288.88 320C1227.5 320 1166.13 320 1104.75 320C1043.38 320 982 320 920.625 320C859.25 320 797.875 320 736.5 320C675.125 320 613.75 320 552.375 320C491 320 429.625 320 368.25 320C306.875 320 245.5 320 184.125 320C122.75 320 61.375 320 30.6875 320H0V251.6Z" fill="#204AC8" fill-opacity="0.5"/>
<g clip-path="url(#clip3_3_20)">
<path d="M0 256L34.3 229.3C68.6 203 137 149 206 144C274.3 139 343 181 411 197.3C480 213 549 203 617 165.3C685.7 128 754 64 823 37.3C891.4 11 960 21 1029 64C1097.1 107 1166 181 1234 208C1302.9 235 1371 213 1406 202.7L1440 192V320H1405.7C1371.4 320 1303 320 1234 320C1165.7 320 1097 320 1029 320C960 320 891 320 823 320C754.3 320 686 320 617 320C548.6 320 480 320 411 320C342.9 320 274 320 206 320C137.1 320 69 320 34 320H0V256Z" fill="#0099FF" fill-opacity="0.4"/>
<path d="M0 128L24 138.7C48 149 96 171 144 202.7C192 235 240 277 288 293.3C336 309 384 299 432 277.3C480 256 528 224 576 192C624 160 672 128 720 106.7C768 85 816 75 864 96C912 117 960 171 1008 165.3C1056 160 1104 96 1152 80C1200 64 1248 96 1296 117.3C1344 139 1392 149 1416 154.7L1440 160V320H1416C1392 320 1344 320 1296 320C1248 320 1200 320 1152 320C1104 320 1056 320 1008 320C960 320 912 320 864 320C816 320 768 320 720 320C672 320 624 320 576 320C528 320 480 320 432 320C384 320 336 320 288 320C240 320 192 320 144 320C96 320 48 320 24 320H0V128Z" fill="#0099FF" fill-opacity="0.3"/>
<path d="M0 128L34.3 122.7C68.6 117 137 107 206 122.7C274.3 139 343 181 411 192C480 203 549 181 617 165.3C685.7 149 754 139 823 144C891.4 149 960 171 1029 165.3C1097.1 160 1166 128 1234 101.3C1302.9 75 1371 53 1406 42.7L1440 32V320H1405.7C1371.4 320 1303 320 1234 320C1165.7 320 1097 320 1029 320C960 320 891 320 823 320C754.3 320 686 320 617 320C548.6 320 480 320 411 320C342.9 320 274 320 206 320C137.1 320 69 320 34 320H0V128Z" fill="#0099FF" fill-opacity="0.3"/>
</g>
</g>
</g>
</g>
<defs>
<clipPath id="clip0_3_20">
<rect width="1440" height="320" fill="white"/>
</clipPath>
<clipPath id="clip1_3_20">
<rect width="1440" height="320" fill="white"/>
</clipPath>
<clipPath id="clip2_3_20">
<rect width="1473" height="342" fill="white" transform="translate(0 -22)"/>
</clipPath>
<clipPath id="clip3_3_20">
<rect width="1440" height="320" fill="white"/>
</clipPath>
</defs>
</svg>
